# AST/ASF file generated using VICON BodyLanguage
# -----------------------------------------------
:version 1.10
:name VICON
:units
  mass 1.0
  length 0.45
  angle deg
:documentation
   .ast/.asf automatically generated from VICON data using
   VICON BodyBuilder and BodyLanguage model FoxedUp or BRILLIANT.MOD
:root
   order TX TY TZ RX RY RZ
   axis XYZ
   position 0 0 0  
   orientation 0 0 0 
:bonedata
  begin
     id 1 
     name lhipjoint
     direction 0.57768 -0.667037 0.470475 
     length 2.36008 
     axis 0 0 0  XYZ
  end
  begin
     id 2 
     name lfemur
     direction 0.34202 -0.939693 0  
     length 6.97235  
     axis 0 0 20  XYZ
    dof rx ry rz
    limits (-160.0 20.0)
           (-70.0 70.0)
           (-60.0 70.0)
  end
  begin
     id 3 
     name ltibia
     direction 0.34202 -0.939693 0   
     length 6.93428   
     axis 0 0 20   XYZ
    dof rx
    limits (-10.0 170.0)
  end
  begin
     id 4 
     name lfoot
     direction 0.133018 -0.365463 0.921272   
     length 2.18603   
     axis -90 7.62852e-016 20   XYZ
    dof rx rz
    limits (-45.0 90.0)
           (-70.0 20.0)
  end
  begin
     id 5 
     name ltoes
     direction 1.53519e-011 -4.22055e-011 1   
     length 1.07924   
     axis -90 7.62852e-016 20   XYZ
    dof rx
    limits (-90.0 20.0)
  end
  begin
     id 6 
     name rhipjoint
     direction -0.577712 -0.667019 0.470462   
     length 2.36015  
     axis 0 0 0  XYZ 
  end
  begin
     id 7 
     name rfemur
     direction -0.34202 -0.939693 0   
     length 6.71195   
     axis 0 0 -20   XYZ
    dof rx ry rz
    limits (-160.0 20.0)
           (-70.0 70.0)
           (-70.0 60.0)
  end
  begin
     id 8 
     name rtibia
     direction -0.34202 -0.939693 0   
     length 7.04592   
     axis 0 0 -20   XYZ
    dof rx
    limits (-10.0 170.0)
 end
 begin
     id 9 
     name rfoot
     direction -0.113796 -0.312651 0.943027   
     length 2.03846  
     axis -90 -7.62852e-016 -20   XYZ
    dof rx rz
    limits (-45.0 90.0)
           (-20.0 70.0)
  end
  begin
     id 10 
     name rtoes
     direction -1.53586e-011 -4.218e-011 1   
     length 1.01562   
     axis -90 -7.62852e-016 -20   XYZ
    dof rx
    limits (-90.0 20.0)
  end
  begin
     id 11 
     name lowerback
     direction -0.0417299 0.991937 -0.119667   
     length 2.05257   
     axis 0 0 0   XYZ
    dof rx ry rz
    limits (-20.0 45.0)
           (-30.0 30.0)
           (-30.0 30.0)
  end
  begin
     id 12 
     name upperback
     direction -0.00017666 0.999999 0.00105178   
     length 2.05693   
     axis 0 0 0   XYZ
    dof rx ry rz
    limits (-20.0 45.0)
           (-30.0 30.0)
           (-30.0 30.0)
  end
  begin
     id 13 
     name thorax
     direction 0.0185169 0.998203 0.0569866   
     length 2.0932   
     axis 0 0 0   XYZ
    dof rx ry rz
    limits (-20.0 45.0)
           (-30.0 30.0)
           (-30.0 30.0)
  end
  begin
     id 14 
     name lowerneck
     direction -0.0212406 0.982645 0.184277   
     length 1.72509   
     axis 0 0 0   XYZ
    dof rx ry rz
    limits (-20.0 45.0)
           (-30.0 30.0)
           (-30.0 30.0)
  end
  begin
     id 15 
     name upperneck
     direction 0.00528579 0.965323 -0.261004   
     length 1.76294   
     axis 0 0 0   XYZ
    dof rx ry rz
    limits (-20.0 45.0)
           (-30.0 30.0)
           (-30.0 30.0)
  end
  begin
     id 16
     name head
     direction 0.00695421 0.994078 -0.108445  
     length 1.78678  
     axis 0 0 0   XYZ
    dof rx ry rz
    limits (-20.0 45.0)
           (-30.0 30.0)
           (-30.0 30.0)
  end
  begin
     id 17 
     name lclavicle
     direction 0.97277 0.211305 -0.095232  
     length 3.84823  
     axis 0 0 0   XYZ
    dof ry rz
    limits (-20.0 10.0)
           (0.0 20.0)
  end
  begin
     id 18 
     name lhumerus
     direction 1 -4.48957e-011 -1.98313e-027   
     length 4.97185   
     axis 180 -30 -90   XYZ
    dof rx ry rz
    limits (-60.0 90.0)
           (-90.0 90.0)
           (-90.0 90.0)
  end
  begin
     id 19
     name lradius
     direction 1 -4.4898e-011 7.31063e-027   
     length 3.35811   
     axis 180 -30 -90   XYZ
    dof rx
    limits (-10.0 170.0)
  end
  begin
     id 20
     name lwrist
     direction 1 -4.48938e-011 9.95048e-027   
     length 1.67905   
     axis -8.75986e-015 90 90   XYZ
    dof ry
    limits (-180.0 0.0)
 end
  begin
     id 21 
     name lhand
     direction 1 -4.4901e-011 1.9901e-026   
     length 0.622776   
     axis -1.26985e-014 90 90   XYZ
    dof rx rz
    limits (-90.0 90.0)
           (-45.0 45.0)
  end
  begin
     id 22 
     name lfingers
     direction 1 -4.48961e-011 3.98019e-026   
     length 0.502098   
     axis -2.5397e-014 90 90   XYZ
    dof rx
    limits (0.0 90.0)
  end
  begin
     id 23
     name lthumb
     direction 0.707107 -6.34933e-011 0.707107   
     length 0.720915   
     axis -90 45 2.85299e-015   XYZ
    dof rx rz
    limits (-45.0 45.0)
           (-45.0 45.0)
  end
  begin
     id 24 
     name rclavicle
     direction -0.990867 0.133739 -0.0172226   
     length 3.78845  
     axis 0 0 0   XYZ 
    dof ry rz
    limits (-10.0 20.0)
           (-20.0 0.0)
  end
  begin
     id 25 
     name rhumerus
     direction -1 -4.48972e-011 -1.99267e-027  
     length 4.96493   
     axis 180 30 90   XYZ
    dof rx ry rz
    limits (-90.0 60.0)
           (-90.0 90.0)
           (-90.0 90.0)
  end
  begin
     id 26 
     name rradius
     direction -1 -4.48969e-011 8.96093e-027   
     length 3.34929   
     axis 180 30 90   XYZ
    dof rx
    limits (-10.0 170.0)
  end
  begin
     id 27 
     name rwrist
     direction -1 -4.48953e-011 9.95048e-027   
     length 1.67464   
     axis -8.75986e-015 -90 -90   XYZ
    dof ry
    limits (-180.0 0.0)
  end
  begin
     id 28
     name rhand
     direction -1 -4.49001e-011 1.9901e-026   
     length 0.638041   
     axis -1.26985e-014 -90 -90   XYZ
    dof rx rz
    limits (-90.0 90.0)
           (-45.0 45.0)
  end
  begin
     id 29
     name rfingers
     direction -1 -4.48967e-011 3.98019e-026   
     length 0.514405   
     axis -2.5397e-014 -90 -90   XYZ
    dof rx
    limits (0.0 90.0)
  end
  begin
     id 30
     name rthumb
     direction -0.707107 -6.34904e-011 0.707107   
     length 0.738586   
     axis -90 -45 -2.85299e-015   XYZ
    dof rx rz
    limits (-45.0 45.0)
           (-45.0 45.0)
  end
:hierarchy
  begin
    root lhipjoint rhipjoint lowerback
    lhipjoint lfemur
    lfemur ltibia
    ltibia lfoot
    lfoot ltoes
    rhipjoint rfemur
    rfemur rtibia
    rtibia rfoot
    rfoot rtoes
    lowerback upperback
    upperback thorax
    thorax lowerneck lclavicle rclavicle
    lowerneck upperneck
    upperneck head
    lclavicle lhumerus
    lhumerus lradius
    lradius lwrist
    lwrist lhand lthumb
    lhand lfingers
    rclavicle rhumerus
    rhumerus rradius
    rradius rwrist
    rwrist rhand rthumb
    rhand rfingers
  end

#!OML:ASF E:\Mandelcareful walks\Project 1\Capture day 1\Session 1\Subject1.ASF
:FULLY-SPECIFIED
:DEGREES
21
root -8.45764 1.6488 1.08251 144.043 85.0016 42.9558
lowerback -17.3716 1.53054 1.20717
upperback -2.83353 2.04314 -0.997597
thorax 6.76756 1.10918 -1.27431
lowerneck -6.02573 21.6692 18.1089
upperneck 23.3841 31.7904 -16.8726
head 14.9548 14.0031 -3.29244
rclavicle -5.56597e-014 -1.28663e-013
rhumerus 14.0601 -35.5281 -12.2593
rradius 129.236
rwrist -26.6384
rhand -10.8124 -32.1104
rfingers 7.12502
rthumb 15.2012 -61.5319
lclavicle -5.56597e-014 -1.28663e-013
lhumerus 31.0642 26.6338 34.1575
lradius 122.872
lwrist 16.1168
lhand -18.5504 -19.6536
lfingers 7.12502
lthumb 7.73914 10.1847
rfemur -17.2157 -19.5766 19.2462
rtibia 26.5555
rfoot -22.4042 -26.0275
rtoes 3.26699
lfemur -22.1701 11.1444 -17.4575
ltibia 38.1808
lfoot -18.9973 15.525
ltoes 9.50455
22
root -8.45637 1.64887 1.08376 142.717 85.0304 41.6127
lowerback -17.3603 1.52124 1.15524
upperback -2.8182 2.0404 -1.00924
thorax 6.77651 1.10641 -1.25801
lowerneck -6.10225 21.743 18.2284
upperneck 23.696 31.9485 -16.8635
head 15.1679 14.0481 -3.24508
rclavicle 4.77083e-015 6.40087e-014
rhumerus 14.2115 -35.4688 -12.36
rradius 129.157
rwrist -26.4224
rhand -10.8879 -32.214
rfingers 7.12502
rthumb 15.1285 -61.641
lclavicle 4.77083e-015 6.40087e-014
lhumerus 31.0476 26.7474 34.0053
lradius 122.835
lwrist 16.1196
lhand -18.6006 -19.5825
lfingers 7.12502
lthumb 7.69065 10.2576
rfemur -17.3073 -19.7399 19.2277
rtibia 26.6013
rfoot -21.7553 -26.1034
rtoes 1.16981
lfemur -22.1557 11.2413 -17.5335
ltibia 38.1766
lfoot -19.2467 15.5048
ltoes 8.98894
23
root -8.46031 1.65604 1.08659 138.161 84.9773 37.158
lowerback -17.1259 1.54146 0.804489
upperback -2.81186 2.13544 -1.05579
thorax 6.64871 1.14465 -1.09261
lowerneck -6.20254 21.7594 18.1432
upperneck 23.9117 31.9706 -16.6937
head 15.231 14.0438 -3.16096
rclavicle 1.74931e-014 4.36829e-014
rhumerus 14.2696 -35.4126 -12.3425
rradius 129.108
rwrist -26.3043
rhand -10.9639 -32.3259
rfingers 7.12502
rthumb 15.0553 -61.7584
lclavicle 1.74931e-014 4.36829e-014
lhumerus 31.0456 26.7347 33.9343
lradius 122.777
lwrist 16.1376
lhand -18.6884 -19.6497
lfingers 7.12502
lthumb 7.6059 10.1935
rfemur -17.1647 -19.1768 18.8095
rtibia 26.5533
rfoot -22.166 -26.2116
rtoes 2.56737
lfemur -22.0359 11.292 -17.8535
ltibia 38.2185
lfoot -19.5838 15.6513
ltoes 8.56552
24
root -8.46746 1.66146 1.08551 137.723 85.0143 36.8518
lowerback -16.9267 1.58334 0.846243
upperback -2.80853 2.18376 -1.06803
thorax 6.54728 1.16871 -1.12347
lowerneck -6.09612 21.7285 18.1806
upperneck 23.8226 31.9215 -16.7278
head 15.1744 14.0374 -3.20289
rclavicle 7.79236e-014 1.60171e-013
rhumerus 14.2192 -35.4513 -12.2916
rradius 129.128
rwrist -26.4996
rhand -11.0166 -32.3572
rfingers 7.12502
rthumb 15.0045 -61.7935
lclavicle 7.79236e-014 1.60171e-013
lhumerus 31.0788 26.6315 33.9673
lradius 122.769
lwrist 16.1409
lhand -18.689 -19.7215
lfingers 7.12502
lthumb 7.60534 10.1218
rfemur -16.915 -18.6703 18.6991
rtibia 26.4383
rfoot -22.8647 -26.2256
rtoes 4.95564
lfemur -21.9561 11.2589 -17.8331
ltibia 38.2953
lfoot -19.8187 15.7867
ltoes 7.71458
25
root -8.4683 1.66089 1.07945 142.061 85.1216 41.2223
lowerback -16.9353 1.57927 1.28539
upperback -2.79971 2.09371 -1.01598
thorax 6.57173 1.13322 -1.33692
lowerneck -6.76729 21.8158 18.0412
upperneck 25.0326 31.9961 -15.8101
head 15.6225 14.0048 -2.77065
rclavicle 4.92986e-014 1.13407e-013
rhumerus 14.2261 -35.4817 -12.3256
rradius 129.124
rwrist -26.5879
rhand -11.0687 -32.3511
rfingers 7.12502
rthumb 14.9543 -61.7912
lclavicle 4.92986e-014 1.13407e-013
lhumerus 31.0887 26.6346 33.955
lradius 122.781
lwrist 16.1492
lhand -18.6681 -19.6752
lfingers 7.12502
lthumb 7.62554 10.1673
rfemur -16.7721 -18.8072 19.0183
rtibia 26.2859
rfoot -22.6715 -26.2371
rtoes 4.25378
lfemur -22.0246 11.1997 -17.4888
ltibia 38.3898
lfoot -19.9332 15.7823
ltoes 6.61874
26
root -8.46434 1.6557 1.07322 147.383 85.166 46.4595
lowerback -17.1782 1.52925 1.6919
upperback -2.75585 1.94111 -0.911649
thorax 6.75452 1.06702 -1.48473
lowerneck -7.01697 21.8634 17.9149
upperneck 25.2498 32.0384 -15.6023
head 15.7044 13.998 -2.64465
rclavicle 5.725e-014 5.50634e-014
rhumerus 14.3402 -35.5287 -12.405
rradius 129.098
rwrist -26.4635
rhand -11.1328 -32.3412
rfingers 7.12502
rthumb 14.8925 -61.7859
lclavicle 5.725e-014 5.50634e-014
lhumerus 31.0693 26.7405 33.904
lradius 122.769
lwrist 16.1399
lhand -18.7644 -19.6261
lfingers 7.12502
lthumb 7.53261 10.2198
rfemur -16.7768 -19.2344 19.4311
rtibia 26.1543
rfoot -22.1984 -26.1704
rtoes 2.93842
lfemur -22.1846 11.0889 -17.13
ltibia 38.4624
lfoot -20.0342 15.7211
ltoes 5.838
27
root -8.45922 1.65251 1.07213 149.606 85.1956 48.6082
lowerback -17.3414 1.50511 1.8239
upperback -2.72922 1.87605 -0.835446
thorax 6.8706 1.03816 -1.48934
lowerneck -7.20749 21.8942 17.7255
upperneck 25.3037 32.0531 -15.4613
head 15.6959 13.9864 -2.55218
rclavicle 4.13472e-014 2.62893e-014
rhumerus 14.4404 -35.5881 -12.4447
rradius 129.098
rwrist -26.4512
rhand -11.1781 -32.3922
rfingers 7.12502
rthumb 14.8489 -61.8401
lclavicle 4.13472e-014 2.62893e-014
lhumerus 31.033 26.8308 33.9137
lradius 122.798
lwrist 16.1735
lhand -18.7676 -19.6182
lfingers 7.12502
lthumb 7.52946 10.2278
rfemur -16.823 -19.3614 19.637
rtibia 26.1097
rfoot -21.9077 -26.1612
rtoes 3.5979
lfemur -22.2736 11.0669 -16.9668
ltibia 38.4787
lfoot -20.1171 15.683
ltoes 4.71895
28
root -8.45228 1.65194 1.07295 149.202 85.2541 48.1899
lowerback -17.3033 1.51646 1.78699
upperback -2.76408 1.89755 -0.798978
thorax 6.81084 1.04749 -1.42565
lowerneck -7.39835 21.8863 17.5524
upperneck 25.4313 32.0348 -15.3231
head 15.7201 13.9585 -2.47208
rclavicle 5.88403e-014 5.9039e-014
rhumerus 14.4501 -35.5627 -12.427
rradius 129.125
rwrist -26.5128
rhand -11.2521 -32.4599
rfingers 7.12502
rthumb 14.7777 -61.9131
lclavicle 5.88403e-014 5.9039e-014
lhumerus 30.963 26.8259 34.0044
lradius 122.84
lwrist 16.1615
lhand -18.6398 -19.6059
lfingers 7.12502
lthumb 7.65286 10.2357
rfemur -16.8678 -19.3016 19.6496
rtibia 26.1633
rfoot -21.6001 -26.2178
rtoes 4.53222
lfemur -22.2456 11.0993 -16.9486
ltibia 38.4409
lfoot -20.0964 15.6529
ltoes 4.86054
29
root -8.45016 1.65159 1.07184 149.044 85.2559 47.9944
lowerback -17.2984 1.51187 1.74684
upperback -2.81581 1.89946 -0.772365
thorax 6.75045 1.04754 -1.37471
lowerneck -7.42576 21.815 17.4551
upperneck 25.2462 31.9548 -15.4791
head 15.6433 13.9188 -2.54021
rclavicle 7.4743e-014 8.80119e-014
rhumerus 14.4277 -35.511 -12.3508
rradius 129.124
rwrist -26.5297
rhand -11.3067 -32.4665
rfingers 7.12502
rthumb 14.725 -61.9235
lclavicle 7.4743e-014 8.80119e-014
lhumerus 30.8998 26.7643 34.093
lradius 122.832
lwrist 16.0631
lhand -18.5711 -19.6499
lfingers 7.12502
lthumb 7.71911 10.1892
rfemur -16.977 -19.3308 19.6312
rtibia 26.2846
rfoot -21.4305 -26.1918
rtoes 4.14383
lfemur -22.2396 11.0056 -16.9628
ltibia 38.3698
lfoot -20.2709 15.6904
ltoes 5.16255
